<svg width="1125" height="190" viewBox="0 0 1125 190" fill="none" xmlns="http://www.w3.org/2000/svg">
<path d="M644.176 0.670341H762.865C766.48 0.670341 769.406 3.60407 769.406 7.22949V28.9105C769.406 32.5359 766.48 35.4696 762.865 35.4696H676.904V77.639H741.815C745.43 77.639 748.356 80.5727 748.356 84.1982V105.879C748.356 109.505 745.43 112.438 741.815 112.438H676.904V154.679H762.865C766.48 154.679 769.406 157.613 769.406 161.238V182.919C769.406 186.545 766.48 189.479 762.865 189.479H644.176C640.56 189.479 637.635 186.545 637.635 182.919V7.20564C637.635 3.58021 640.56 0.646484 644.176 0.646484V0.670341Z" fill="#0029D2"/>
<path d="M484.939 1.0625H510.936C514.599 1.0625 517.572 4.04394 517.572 7.71706V155.405H588.929C592.592 155.405 595.565 158.387 595.565 162.06V183.312C595.565 186.985 592.592 189.966 588.929 189.966H484.939C481.276 189.966 478.303 186.985 478.303 183.312V7.74092C478.303 4.06779 481.276 1.08636 484.939 1.08636V1.0625Z" fill="#0029D2"/>
<path d="M61.529 189.871C31.274 189.871 11.9127 176.418 3.39751 149.514C1.73253 143.432 0.923828 136.944 0.923828 130.099V7.62165C0.923828 3.99623 3.84943 1.0625 7.46481 1.0625H33.6763C37.2917 1.0625 40.2173 3.99623 40.2173 7.62165V133.939C40.2173 145.602 49.6363 155.048 61.2674 155.048H103.249C114.88 155.048 124.299 145.602 124.299 133.939V7.62165C124.299 3.99623 127.224 1.0625 130.84 1.0625H157.004C160.619 1.0625 163.545 3.99623 163.545 7.62165V130.099C163.545 136.968 162.712 143.432 161.071 149.514C152.58 176.418 133.194 189.871 102.939 189.871H61.4814H61.529Z" fill="#0029D2"/>
<path d="M387.233 1.0625H296.634C292.852 1.0625 290.688 3.23299 290.141 7.57396V183.407C290.141 187.032 293.066 189.966 296.682 189.966H322.846C326.461 189.966 329.387 187.032 329.387 183.407V123.063L387.209 123.11C414.253 123.11 436.183 101.119 436.183 74.0003V50.2442C436.183 23.1251 414.253 1.08636 387.209 1.08636L387.233 1.0625ZM396.913 67.1072C396.913 78.7706 387.494 88.2158 375.863 88.2158H329.434V35.8856H375.863C387.494 35.8856 396.913 45.3308 396.913 56.9942V67.1311V67.1072Z" fill="#0029D2"/>
<path d="M1032.52 35.202H985.57C981.955 35.202 979.029 32.2682 979.029 28.6428V7.39118C979.029 3.76576 981.955 0.832031 985.57 0.832031H1118.46C1122.07 0.832031 1125 3.76576 1125 7.39118V28.6428C1125 32.2682 1122.07 35.202 1118.46 35.202H1071.77V183.391C1071.77 187.017 1068.84 189.95 1065.23 189.95H1039.09C1035.47 189.95 1032.55 187.017 1032.55 183.391V35.202H1032.52Z" fill="#0029D2"/>
<path d="M926.113 153.892H843.625L832.208 185.209C831.257 187.808 828.807 189.526 826.048 189.526H797.006C792.415 189.526 789.228 184.899 790.893 180.581L858.61 4.86777C859.585 2.33951 862.011 0.669922 864.723 0.669922H905.015C907.727 0.669922 910.153 2.33951 911.128 4.86777L978.56 180.581C980.201 184.875 977.038 189.502 972.447 189.502H943.667C940.907 189.502 938.458 187.785 937.506 185.185L926.113 153.868V153.892ZM854.162 119.736H915.338L884.893 34.8014L854.162 119.736Z" fill="#0029D2"/>
</svg>
